<?xml version="1.0" standalone="no"?>
<!DOCTYPE svg PUBLIC "-//W3C//DTD SVG 20010904//EN"
 "http://www.w3.org/TR/2001/REC-SVG-20010904/DTD/svg10.dtd">
<svg version="1.0" xmlns="http://www.w3.org/2000/svg"
 width="512.000000pt" height="512.000000pt" viewBox="0 0 512.000000 512.000000"
 preserveAspectRatio="xMidYMid meet">
<metadata>
Created by potrace 1.15, written by Peter Selinger 2001-2017
</metadata>
<g transform="translate(0.000000,512.000000) scale(0.100000,-0.100000)"
fill="#000000" stroke="none">
<path d="M2240 5105 c-545 -68 -1056 -312 -1452 -694 -413 -397 -660 -867
-761 -1441 -19 -109 -21 -162 -21 -410 0 -314 10 -408 74 -652 151 -582 514
-1102 1012 -1451 314 -219 660 -360 1058 -430 109 -19 162 -21 410 -21 248 0
301 2 410 21 398 70 744 211 1058 430 576 404 960 1022 1069 1723 26 163 26
597 0 760 -128 826 -635 1528 -1374 1906 -264 135 -559 224 -858 260 -147 17
-480 17 -625 -1z m877 -949 c190 -40 312 -89 429 -171 l61 -44 16 -288 c10
-158 20 -325 23 -370 4 -73 3 -84 -16 -103 -37 -37 -76 -24 -253 84 -230 139
-374 188 -552 189 -205 0 -353 -60 -495 -203 -124 -124 -191 -248 -248 -459
-24 -90 -26 -110 -26 -331 0 -206 2 -247 21 -331 44 -195 112 -329 216 -427
121 -113 267 -146 467 -104 157 33 144 19 169 175 11 74 21 142 21 151 0 14
-21 16 -200 16 -171 0 -200 2 -200 15 0 76 112 547 150 631 48 106 -2 99 660
102 316 1 600 -1 630 -5 l55 -9 -2 -74 c-1 -61 -15 -120 -76 -323 -51 -169
-82 -256 -97 -272 -18 -20 -36 -25 -102 -31 -68 -6 -81 -10 -88 -28 -4 -11
-22 -124 -39 -250 -34 -242 -54 -355 -71 -386 -13 -24 -239 -164 -371 -231
-126 -63 -274 -112 -404 -135 -137 -23 -406 -24 -535 -1 -468 84 -826 353
-1031 772 -68 141 -100 235 -131 388 -32 157 -32 485 0 657 33 183 85 339 167
505 94 188 180 310 320 450 233 233 513 383 828 445 143 27 158 28 382 25 167
-3 220 -8 322 -29z"/>
</g>
</svg>
